# xmcd
#
# Track frame offsets: 
#        150
#        13687
#        31462
#        55012
#        72525
#        99525
#        123407
#        136350
#        151125
#        167925
#
# Disc length: 2493 seconds
#
# Revision: 9
# Processed by: cddbd v1.5.2PL0 Copyright (c) Steve Scherf et al.
# Submitted via: ExactAudioCopy v1.3
#
DISCID=8509bb0a
DTITLE=Boz Scaggs - Silk Degrees
DYEAR=1976
DGENRE=Rock
TTITLE0=What Can I Say
TTITLE1=Georgia
TTITLE2=Jump Street
TTITLE3=What Do You Want the Girl to Do
TTITLE4=Harbor Lights
TTITLE5=Lowdown
TTITLE6=It's Over
TTITLE7=Love Me Tomorrow
TTITLE8=Lido Shuffle
TTITLE9=We're all Alone
EXTD=YEAR: 1976
EXTT0=
EXTT1=
EXTT2=
EXTT3=
EXTT4=
EXTT5=
EXTT6=
EXTT7=
EXTT8=
EXTT9=
PLAYORDER=
